<svg width="366" height="77" viewBox="0 0 366 77" fill="none" xmlns="http://www.w3.org/2000/svg">
<g clip-path="url(#clip0_83_89)">
<path d="M359.571 59.4645V40.7664H341.139C341.139 51.0998 349.286 59.4645 359.571 59.4645Z" fill="#95BE27"/>
<path d="M360.323 4.0142L365.5 0.622559V23.7514L341.151 39.6344C341.151 25.2671 348.364 11.8809 360.337 4.02366L360.326 4.01302H360.323V4.0142Z" fill="#95BE27"/>
<path d="M339.723 39.6107H339.218C333.065 39.6107 328.066 34.5927 328.066 28.4067H339.723V39.6107Z" fill="#0F0B43"/>
<path d="M262.931 66.7422C261.363 65.1928 260.545 63.0235 260.545 60.5101V42.9854H251.885V60.5101C251.885 64.8486 252.976 68.4638 255.056 71.0115C257.646 74.179 261.875 75.7971 267.534 75.7971H283.968V42.9854H275.308V69.1522H268.524C266.273 68.9801 264.364 68.1882 262.931 66.7422Z" fill="#0F0B43"/>
<path d="M328.617 52.178C329.572 53.4861 330.083 55.2426 330.151 57.549V75.7971H338.948V58.2723C338.948 53.521 338.13 50.1465 336.391 47.7023C334.106 44.5348 330.219 42.9854 324.457 42.9854H288.725V75.7628H297.522V49.5959H302.772C305.023 49.768 306.727 50.5942 307.853 52.1437C308.807 53.4518 309.319 55.2083 309.421 57.5147V75.7628H318.218V49.5959H323.468C325.719 49.7337 327.423 50.5942 328.549 52.1094L328.617 52.178Z" fill="#0F0B43"/>
<path d="M27.1725 50.0774V75.7622H52.6077C56.7334 75.7622 60.0743 72.3883 60.0743 68.2219V42.5371H34.6391C30.5134 42.5371 27.1719 45.911 27.1719 50.0774H27.1725ZM52.676 68.2911H34.5714V50.0431H52.676V68.2911Z" fill="#0F0B43"/>
<path d="M114.758 58.0304C114.758 53.21 113.94 49.8018 112.236 47.3227C109.985 44.1209 106.098 42.5371 100.438 42.5371H65.0127V75.7622H73.7074V49.2855H78.9239C81.1398 49.4576 82.8447 50.3187 83.9698 51.8675C85.0271 53.3135 85.5387 55.3106 85.5387 57.9961V75.7622H94.2669V49.2855H99.4835C101.7 49.4233 103.404 50.2838 104.53 51.8332C105.587 53.2792 106.098 55.2763 106.098 57.9618V75.7279H114.826V57.9618L114.758 58.0304Z" fill="#0F0B43"/>
<path d="M187.69 75.7965V58.031C187.69 53.6583 186.6 49.9745 184.486 47.3919C181.86 44.1901 177.598 42.5371 171.836 42.5371H155.198V75.7622H163.994V49.2855H170.132C172.722 49.2855 174.905 50.1117 176.507 51.7303C177.94 53.142 178.724 55.0699 178.894 57.3078V75.7965H187.69Z" fill="#0F0B43"/>
<path d="M207.855 75.797H211.163V69.0486H208.333C205.196 69.0486 203.389 67.2585 202.434 65.7433C201.48 64.2631 200.9 62.4037 200.798 60.4758H200.764V49.3546H210.753V42.6062H200.764V31.8984H192.206V60.4758C192.308 65.5026 193.637 69.3242 196.126 71.8719C198.718 74.4888 202.639 75.797 207.855 75.797Z" fill="#0F0B43"/>
<path d="M237.285 51.9024C238.683 53.3141 239.502 55.2077 239.638 57.4112V75.7971H248.367V58.1688C248.367 53.796 247.276 50.1466 245.196 47.6331C242.673 44.5685 238.649 42.9505 233.262 42.8127H224.772V25.0466H216.044V75.8314H224.772V49.5268H231.625C233.91 49.6989 235.819 50.5251 237.251 51.9367L237.285 51.9024Z" fill="#0F0B43"/>
<path d="M24.0261 47.5874H8.95565V42.8705C9.09223 40.2193 9.91054 37.5681 11.2057 35.5366C12.5697 33.4017 15.1265 30.8883 19.5931 30.8883H26.5828V23.8992H18.9455C12.5015 23.8992 7.89833 25.4143 4.9324 28.5818C1.93174 31.7493 0.5 36.6733 0.5 43.5938V75.888H8.88736V55.0591H23.9578V47.5874H24.0261Z" fill="#0F0B43"/>
<path d="M83.839 22.9395C83.185 22.6462 82.382 22.4971 81.4524 22.4971H79.3307V22.4758L79.3113 22.4971H77.2319V32.9198H77.5651V33.2203H79.3301V30.1906H81.4518C82.3814 30.1906 83.1844 30.0415 83.8384 29.7482C84.4972 29.4525 85.0265 29.0066 85.4121 28.4223L85.4174 28.414C85.7953 27.8031 85.979 27.126 85.979 26.3435C85.979 25.5611 85.783 24.8272 85.4121 24.2648C85.0265 23.6811 84.4972 23.2346 83.8384 22.9389L83.839 22.9395ZM83.8808 26.3441C83.8808 26.9793 83.6824 27.4583 83.2915 27.7682C82.8624 28.1089 82.2319 28.2815 81.4183 28.2815H79.3307V24.4067H81.4183C82.2283 24.4067 82.8565 24.5776 83.2862 24.9153C83.6919 25.269 83.8808 25.7232 83.8808 26.3441Z" fill="#0F0B43"/>
<path d="M165.977 19.073H163.131L160.487 21.6024H162.73L165.977 19.073Z" fill="#0F0B43"/>
<path d="M35.967 25.3062C36.246 25.0241 36.5898 24.8029 37.0802 24.59C37.5412 24.425 38.041 24.3381 38.5261 24.3381C39.0112 24.3381 39.4951 24.4333 39.9284 24.6208C40.4265 24.836 40.8015 25.0945 41.1099 25.4339L41.3413 25.6888L42.7348 24.334L42.5293 24.0944C42.0831 23.574 41.4797 23.15 40.7361 22.8342C40.0503 22.5426 39.295 22.3948 38.492 22.3948C37.6265 22.3948 36.8948 22.5261 36.2554 22.7969C35.5602 23.0565 34.9779 23.4291 34.4758 23.9354C33.9783 24.4031 33.575 24.9827 33.2777 25.6587C32.9875 26.3187 32.8403 27.0591 32.8403 27.8598C32.8403 28.6606 32.9875 29.4016 33.2777 30.061C33.5886 30.7665 33.9677 31.3402 34.4375 31.8145L34.4463 31.8234C34.9438 32.29 35.5225 32.6602 36.2142 32.9541L36.2284 32.96C36.9413 33.225 37.6913 33.3598 38.4584 33.3598H38.7916V33.3172C39.488 33.2829 40.1386 33.1386 40.7296 32.8885C41.4196 32.6306 42.0419 32.1936 42.5293 31.6252L42.7348 31.3857L41.3413 30.0308L41.1099 30.2857C40.7785 30.6512 40.3841 30.9345 39.9378 31.1297C39.4704 31.297 38.9953 31.3816 38.5261 31.3816C37.945 31.3816 37.4753 31.3006 37.0896 31.1332L37.0702 31.1255C36.6593 30.9777 36.2884 30.7376 35.9664 30.4129C35.6591 30.103 35.4089 29.7245 35.2223 29.2881C35.0562 28.8155 34.9721 28.3353 34.9721 27.8604C34.9721 27.2886 35.0503 26.8379 35.2181 26.4423C35.4053 26.0017 35.6567 25.6202 35.9664 25.3074L35.967 25.3062Z" fill="#0F0B43"/>
<path d="M71.3316 28.4229L71.3369 28.4146C71.7149 27.8037 71.8985 27.1266 71.8985 26.3441C71.8985 25.5617 71.7025 24.8278 71.3316 24.2654C70.946 23.6817 70.4168 23.2352 69.758 22.9395C69.1039 22.6462 68.3009 22.4971 67.3713 22.4971H65.2496V22.4758L65.2302 22.4971H63.1509V33.2552H65.2496V30.1912H67.3713C67.5303 30.1912 67.6863 30.187 67.8376 30.1781L69.8946 33.1132L70.133 32.9447V33.2552H72.3436L69.8551 29.7033C70.4686 29.4081 70.9654 28.9776 71.3316 28.4229ZM69.7998 26.3441C69.7998 26.9651 69.6108 27.4193 69.2052 27.7729C68.776 28.1106 68.1479 28.2821 67.3372 28.2821H65.2496V24.4073H67.3372C68.1473 24.4073 68.7754 24.5788 69.2046 24.9159C69.6102 25.2696 69.7992 25.7238 69.7992 26.3447L69.7998 26.3441Z" fill="#0F0B43"/>
<path d="M56.3127 23.9644C55.7493 23.4363 55.1665 23.0643 54.5301 22.8278C53.8172 22.5628 53.0671 22.428 52.3006 22.428C51.4323 22.428 50.6982 22.5605 50.0565 22.8331C49.3341 23.14 48.7707 23.512 48.2839 24.0029C47.7864 24.4707 47.3831 25.0502 47.0858 25.7262C46.7956 26.3856 46.6484 27.1148 46.6484 27.893C46.6484 28.6713 46.7956 29.3999 47.0858 30.0599C47.3737 30.7146 47.7758 31.3042 48.2798 31.8134L48.2886 31.8223C48.786 32.2889 49.3647 32.6591 50.0571 32.953L50.0712 32.9589C50.6805 33.1854 51.3169 33.3167 51.9674 33.3498V33.393H52.3006C53.0783 33.393 53.8077 33.2623 54.5301 32.9932C55.1665 32.7567 55.7493 32.3847 56.3133 31.856C56.8108 31.387 57.1928 30.8275 57.5154 30.0948C57.8057 29.4354 57.9529 28.6944 57.9529 27.8936C57.9529 27.0929 57.8057 26.3519 57.5154 25.6925C57.217 25.0147 56.8125 24.4334 56.3127 23.965V23.9644ZM52.3006 31.4148C51.7037 31.4148 51.2604 31.3385 50.8642 31.1664L50.8448 31.1587C50.4344 31.0109 50.063 30.7708 49.7409 30.4461C49.4336 30.1356 49.1834 29.7571 48.9968 29.3213C48.8308 28.8487 48.7466 28.3685 48.7466 27.8936C48.7466 27.3218 48.8249 26.8711 48.9927 26.4755C49.1799 26.0349 49.4313 25.6534 49.7403 25.3406C50.0476 25.0307 50.4221 24.7782 50.8536 24.5895C51.3146 24.4245 51.8144 24.3376 52.2995 24.3376C52.8652 24.3376 53.3109 24.4162 53.7018 24.5854C54.1374 24.774 54.5154 25.0277 54.825 25.3406C55.1341 25.6528 55.3861 26.0349 55.5733 26.4755C55.7593 26.9137 55.8535 27.3904 55.8535 27.8936C55.8535 28.3969 55.7593 28.8736 55.5733 29.3118C55.3861 29.7524 55.1347 30.1338 54.825 30.4467C54.546 30.7288 54.2022 30.95 53.7118 31.1629C53.2443 31.3302 52.7693 31.4154 52.3001 31.4154L52.3006 31.4148Z" fill="#0F0B43"/>
<path d="M151.171 22.5662H149.072V33.3242H151.171V22.5662Z" fill="#0F0B43"/>
<path d="M166.033 24.0335C165.469 23.5054 164.886 23.1334 164.25 22.8969C163.538 22.6319 162.788 22.4971 162.02 22.4971C161.152 22.4971 160.417 22.6295 159.776 22.9022C159.055 23.2091 158.491 23.5805 158.003 24.072C157.506 24.5397 157.102 25.1193 156.806 25.7953C156.515 26.4541 156.368 27.1833 156.368 27.9621C156.368 28.741 156.515 29.4702 156.805 30.129C157.093 30.7837 157.494 31.3733 157.999 31.8825L158.008 31.8914C158.506 32.3586 159.085 32.7282 159.776 33.0221L159.79 33.0274C160.399 33.2539 161.036 33.3852 161.687 33.4183V33.4615H162.02C162.798 33.4615 163.526 33.3308 164.249 33.0617C164.885 32.8252 165.469 32.4538 166.033 31.9245C166.53 31.4555 166.912 30.896 167.234 30.1633C167.524 29.5045 167.672 28.7635 167.672 27.9621C167.672 27.1608 167.524 26.4198 167.234 25.761C166.936 25.0832 166.531 24.5019 166.031 24.0335H166.033ZM162.021 31.4839C161.424 31.4839 160.981 31.4076 160.584 31.2361L160.565 31.2284C160.155 31.0806 159.783 30.8405 159.461 30.5158C159.155 30.2059 158.904 29.8274 158.717 29.3904C158.551 28.9172 158.468 28.437 158.468 27.9627C158.468 27.3909 158.546 26.9402 158.713 26.5452C158.9 26.1046 159.152 25.7225 159.461 25.4103C159.768 25.1004 160.143 24.8479 160.575 24.6592C161.036 24.4942 161.536 24.4067 162.021 24.4067C162.586 24.4067 163.032 24.4853 163.423 24.6551C163.86 24.8437 164.237 25.0974 164.546 25.4097C164.855 25.7219 165.106 26.1034 165.294 26.544C165.48 26.9828 165.575 27.4595 165.575 27.9621C165.575 28.4648 165.48 28.9415 165.295 29.3803C165.108 29.8215 164.856 30.2029 164.547 30.5152C164.268 30.7973 163.924 31.0185 163.433 31.2314C162.966 31.3987 162.491 31.4839 162.022 31.4839H162.021Z" fill="#0F0B43"/>
<path d="M180.031 22.5662V29.4742L174.524 22.5662H172.871V33.3236H174.969V26.415L180.477 33.3236H182.13V22.5662H180.031Z" fill="#0F0B43"/>
<path d="M137.368 25.3747C137.647 25.0926 137.99 24.8714 138.481 24.6585C138.942 24.4935 139.442 24.406 139.927 24.406C140.412 24.406 140.896 24.5012 141.329 24.6887C141.827 24.9039 142.202 25.1624 142.511 25.5018L142.742 25.7567L144.135 24.4018L143.93 24.1623C143.484 23.6425 142.88 23.2184 142.137 22.9021C141.45 22.6105 140.696 22.4626 139.893 22.4626C139.027 22.4626 138.295 22.5939 137.655 22.8648C136.96 23.1244 136.378 23.497 135.875 24.0032C135.378 24.471 134.975 25.0506 134.677 25.7265C134.387 26.3865 134.24 27.127 134.24 27.9277C134.24 28.7285 134.387 29.4689 134.677 30.1289C134.988 30.835 135.368 31.4081 135.837 31.8824L135.846 31.8906C136.343 32.3573 136.921 32.7275 137.614 33.022L137.628 33.0279C138.341 33.2928 139.091 33.4277 139.858 33.4277H140.191V33.3851C140.887 33.3508 141.537 33.2071 142.129 32.9563C142.819 32.6979 143.441 32.2615 143.929 31.6931L144.135 31.4536L142.741 30.0987L142.51 30.3536C142.179 30.7185 141.784 31.0024 141.338 31.1969C140.871 31.3643 140.396 31.4495 139.927 31.4495C139.346 31.4495 138.876 31.3684 138.49 31.2011L138.471 31.1934C138.06 31.0455 137.689 30.8054 137.367 30.4808C137.059 30.1697 136.809 29.7912 136.623 29.3553C136.457 28.884 136.373 28.4038 136.373 27.9277C136.373 27.3547 136.452 26.9046 136.619 26.5096C136.806 26.0696 137.057 25.6881 137.367 25.3753L137.368 25.3747Z" fill="#0F0B43"/>
<path d="M115.11 28.4572L115.116 28.4489C115.494 27.838 115.677 27.1608 115.677 26.3784C115.677 25.596 115.481 24.8615 115.11 24.2997C114.725 23.7154 114.195 23.2695 113.536 22.9738C112.883 22.6804 112.08 22.5314 111.15 22.5314H109.028V22.5095L109.009 22.5314H106.93V33.2894H109.028V30.2254H111.15C111.309 30.2254 111.465 30.2213 111.616 30.2124L113.673 33.1475L113.912 32.979V33.29H116.122L113.634 29.7381C114.248 29.443 114.744 29.0125 115.11 28.4578V28.4572ZM112.983 24.9496C113.389 25.3033 113.578 25.7575 113.578 26.3784C113.578 26.9994 113.389 27.4536 112.983 27.8072C112.554 28.1449 111.926 28.3158 111.115 28.3158H109.028V24.441H111.115C111.925 24.441 112.554 24.6119 112.983 24.9496H112.983Z" fill="#0F0B43"/>
<path d="M124.164 22.5312L119.329 33.2893H121.563L122.655 30.7759H127.502L128.594 33.2893H130.829L125.993 22.5312H124.165H124.164ZM126.717 28.9698H123.44L125.079 25.1973L126.718 28.9698H126.717Z" fill="#0F0B43"/>
<path d="M100.092 23.9986C99.5282 23.4705 98.9454 23.0991 98.309 22.8619C97.5967 22.597 96.8461 22.4622 96.079 22.4622C95.2106 22.4622 94.4765 22.5946 93.8348 22.8673C93.1125 23.1742 92.5491 23.5462 92.0628 24.0364C91.5653 24.5036 91.1621 25.0838 90.8642 25.7604C90.5739 26.4204 90.4268 27.1495 90.4268 27.9272C90.4268 28.7049 90.5739 29.4341 90.8648 30.0941C91.1532 30.7488 91.5553 31.339 92.0587 31.8476L92.0675 31.8559C92.5644 32.3225 93.1425 32.6921 93.8354 32.9866L93.8495 32.9925C94.4588 33.219 95.0952 33.3503 95.7458 33.3834V33.4266H96.079C96.8567 33.4266 97.5861 33.2959 98.309 33.0268C98.9454 32.7903 99.5282 32.4183 100.092 31.8896C100.59 31.4206 100.972 30.8611 101.294 30.1278C101.585 29.4678 101.732 28.7268 101.732 27.9266C101.732 27.1265 101.585 26.3855 101.294 25.7255C100.996 25.0477 100.591 24.4664 100.092 23.9974V23.9986ZM96.0796 31.449C95.4826 31.449 95.0399 31.3727 94.6431 31.2006L94.6237 31.1929C94.2128 31.0451 93.8419 30.8049 93.5198 30.4803C93.2131 30.1704 92.9629 29.7919 92.7757 29.3549C92.6097 28.8817 92.5261 28.4015 92.5261 27.9272C92.5261 27.3554 92.6044 26.9047 92.7716 26.5097C92.9588 26.0685 93.2108 25.687 93.5198 25.3748C93.8266 25.0649 94.201 24.8124 94.6331 24.6237C95.0946 24.4587 95.5939 24.3718 96.079 24.3718C96.6447 24.3718 97.0904 24.4504 97.4813 24.6196C97.9175 24.8082 98.2955 25.0625 98.6045 25.3748C98.9142 25.687 99.1656 26.0685 99.3522 26.5097C99.5382 26.9473 99.633 27.4245 99.633 27.9272C99.633 28.4299 99.5388 28.9072 99.3522 29.3454C99.1656 29.786 98.9136 30.1674 98.6045 30.4797C98.3255 30.7618 97.9817 30.983 97.4913 31.1959C97.0244 31.3632 96.5493 31.4484 96.0796 31.4484V31.449Z" fill="#0F0B43"/>
<path d="M141.474 68.4283C139.906 69.2202 138.269 69.5993 136.326 69.5993C133.871 69.5993 131.893 68.9103 130.393 67.5678C129.166 66.4661 128.279 64.9166 127.836 62.9887L127.802 62.7474C127.767 62.5753 127.733 62.4375 127.699 62.2654L127.563 61.5421L127.427 60.7502H151.703C151.566 54.5187 150.304 49.9739 147.884 46.875C145.156 43.3633 140.86 41.676 134.757 41.676C129.643 41.676 125.449 43.2941 122.619 46.393C119.959 49.2849 118.494 53.4513 118.357 58.4438V59.0979C118.357 64.5375 119.789 68.8417 122.653 71.8371C125.688 75.0046 130.188 76.6227 136.053 76.6227C141.918 76.6227 146.248 74.6255 150.339 70.3563L145.225 65.7428C144.065 66.776 142.804 67.7399 141.474 68.4283ZM130.495 50.3181C131.654 49.3541 133.086 48.8378 134.791 48.7H136.223C137.894 48.8378 139.326 49.3541 140.485 50.2495C141.56 51.0975 142.403 52.3134 142.982 53.8635H128.065C128.578 52.3808 129.388 51.1655 130.495 50.3181Z" fill="#0F0B43"/>
</g>
<defs>
<clipPath id="clip0_83_89">
<rect width="365" height="76" fill="white" transform="translate(0.5 0.622559)"/>
</clipPath>
</defs>
</svg>
